<?xml version="1.0" standalone="no"?><!DOCTYPE svg PUBLIC "-//W3C//DTD SVG 1.1//EN" "http://www.w3.org/Graphics/SVG/1.1/DTD/svg11.dtd"><svg t="1562661616729" class="icon" viewBox="0 0 1024 1024" version="1.1" xmlns="http://www.w3.org/2000/svg" p-id="948" xmlns:xlink="http://www.w3.org/1999/xlink" width="128" height="128"><defs><style type="text/css"></style></defs><path d="M497.629867 1001.984C338.1248 1001.984 68.266667 777.386667 68.266667 565.077333V159.607467c0-9.796267 16.042667-27.613867 26.862933-27.818667h26.8288C273.749333 123.6992 379.460267 74.410667 470.459733 13.755733l15.291734-10.24a21.777067 21.777067 0 0 1 11.946666-3.515733c4.130133 0 8.123733 1.1264 11.5712 3.4816l15.496534 10.274133c86.357333 60.245333 253.8496 125.405867 348.672 118.101334h26.8288c10.820267 0.170667 26.624 17.988267 26.624 27.784533l0.2048 405.4016c0 212.343467-269.858133 436.906667-429.4656 436.906667zM846.574933 184.558933c-172.032-22.596267-211.968-46.421333-348.945066-134.144-110.2848 73.1136-178.722133 110.523733-375.671467 134.144v369.152c0 184.1152 248.183467 395.537067 375.739733 395.537067 104.106667 0 373.8624-195.413333 375.7056-395.537067V184.558933h-26.8288zM484.010667 625.698133a26.077867 26.077867 0 0 1-36.317867 0l-130.730667-127.2832a24.302933 24.302933 0 0 1 0-35.157333 26.2144 26.2144 0 0 1 36.317867 0l112.605867 109.738667 229.2736-223.061334a26.2144 26.2144 0 0 1 36.317866 0 24.234667 24.234667 0 0 1 0 35.157334l-247.466666 240.605866z" fill="#C0C4CC" p-id="949"></path></svg>