<?xml version="1.0" standalone="no"?><!DOCTYPE svg PUBLIC "-//W3C//DTD SVG 1.1//EN" "http://www.w3.org/Graphics/SVG/1.1/DTD/svg11.dtd"><svg t="1567666484492" class="icon" viewBox="0 0 1024 1024" version="1.1" xmlns="http://www.w3.org/2000/svg" p-id="922" xmlns:xlink="http://www.w3.org/1999/xlink" width="200" height="200"><defs><style type="text/css"></style></defs><path d="M970.752 179.95093333s-1.09226667 0 0 0c-1.09226667-2.18453333-1.09226667-4.36906667-2.18453333-6.5536-1.09226667-1.09226667-2.18453333-3.2768-3.2768-4.36906666l-1.09226667-1.09226667-1.09226667-1.09226667c-1.09226667-1.09226667-2.18453333-2.18453333-4.36906666-2.18453333h-1.09226667c-2.18453333-1.09226667-3.2768-1.09226667-5.46133333-1.09226667h-1.09226667C806.912 140.62933333 658.36373333 129.70666667 512 129.70666667s-294.912 10.92266667-440.18346667 32.768h-1.09226666c-2.18453333 0-3.2768 1.09226667-5.46133334 1.09226666H64.17066667c-1.09226667 1.09226667-3.2768 1.09226667-4.36906667 2.18453334l-1.09226667 1.09226666-1.09226666 1.09226667c-1.09226667 1.09226667-2.18453333 2.18453333-3.2768 4.36906667v1.09226666c-1.09226667 2.18453333-1.09226667 3.2768-2.18453334 5.46133334C31.40266667 290.26986667 20.48 401.68106667 20.48 512s10.92266667 221.73013333 32.768 332.04906667c2.18453333 8.73813333 8.73813333 16.384 18.56853333 17.47626666C217.088 883.37066667 365.63626667 894.29333333 512 894.29333333s294.912-10.92266667 440.18346667-32.768c8.73813333-1.09226667 16.384-8.73813333 18.56853333-17.47626666 21.84533333-110.31893333 32.768-221.73013333 32.768-332.04906667s-10.92266667-221.73013333-32.768-332.04906667z m-64.44373333 20.75306667c-46.96746667 53.52106667-102.67306667 103.76533333-167.1168 151.82506667-75.3664 56.79786667-151.82506667 101.5808-227.19146667 135.44106666-83.01226667-39.3216-158.37866667-84.10453333-227.19146667-135.44106666-60.07466667-44.78293333-115.78026667-96.11946667-167.1168-151.82506667C248.76373333 182.13546667 380.928 173.39733333 512 173.39733333s263.23626667 8.73813333 394.30826667 27.30666667z m24.02986666 619.3152C791.62026667 840.77226667 650.71786667 850.60266667 512 850.60266667s-279.62026667-9.8304-418.33813333-30.58346667C74.00106667 718.4384 64.17066667 614.67306667 64.17066667 512c0-92.84266667 8.73813333-186.7776 24.02986666-279.62026667 51.33653333 56.79786667 109.22666667 109.22666667 170.3936 155.10186667 74.27413333 55.7056 154.0096 102.67306667 244.66773334 144.1792 3.2768 1.09226667 6.5536 2.18453333 8.73813333 2.18453333 3.2768 0 5.46133333-1.09226667 8.73813333-2.18453333 81.92-34.95253333 163.84-84.10453333 244.66773334-144.1792 64.44373333-49.152 122.33386667-100.48853333 170.3936-154.0096C952.18346667 326.31466667 959.82933333 419.15733333 959.82933333 512c0 102.67306667-9.8304 206.4384-29.4912 308.0192z" p-id="923"></path></svg>