<?xml version="1.0" standalone="no"?><!DOCTYPE svg PUBLIC "-//W3C//DTD SVG 1.1//EN" "http://www.w3.org/Graphics/SVG/1.1/DTD/svg11.dtd"><svg t="1561686415634" class="icon" viewBox="0 0 1024 1024" version="1.1" xmlns="http://www.w3.org/2000/svg" p-id="1297" xmlns:xlink="http://www.w3.org/1999/xlink" width="128" height="128"><defs><style type="text/css"></style></defs><path d="M723.60846222 609.86709333l163.84 0q13.64119666-63.73982777 13.64119666-97.86709333t-13.64119666-97.86709333l-163.84 0q6.84487111 47.76846222 6.84487111 97.86709333t-6.84487111 97.86709333zM637.14948779 878.37051221q138.79068445-45.53538333 211.60846222-172.96649443l-143.35393223 0q-22.76769223 91.02222222-68.25452999 172.96649443zM625.78991445 609.86709333q6.84487111-47.76846222 6.84487112-97.86709333t-6.84487112-97.86709333l-227.57982776 0q-6.84487111 47.76846222-6.84487112 97.86709333t6.84487112 97.86709333l227.57982776 0zM512 898.85658112q63.73982777-93.30384555 93.30384555-193.40401778l-186.60769224 0q29.56401778 100.14871666 93.30384555 193.40401778zM318.59598222 318.59598222q22.76769223-91.02222222 68.25452999-172.96649443-138.79068445 45.53538333-211.60846222 172.96649443l143.35393223 0zM175.24204999 705.40401778q72.81777778 127.43111111 211.60846222 172.96649443-45.53538333-81.94427221-68.25452999-172.96649443l-143.35393223 0zM136.55153778 609.86709333l163.84 0q-6.84487111-47.76846222-6.84487111-97.86709333t6.84487111-97.86709333l-163.84 0q-13.64119666 63.73982777-13.64119666 97.86709333t13.64119666 97.86709333zM512 125.14341888q-63.73982777 93.30384555-93.30384555 193.40401778l186.60769224 0q-29.56401778-100.14871666-93.30384555-193.40401778zM848.80649443 318.59598222q-72.81777778-127.43111111-211.60846222-172.96649443 45.53538333 81.94427221 68.25453 172.96649443l143.35393222 0zM512 27.32487111q200.24888889 0 342.4862811 142.23739222t142.23739221 342.4862811-142.23739221 342.4862811-342.4862811 142.23739221-342.4862811-142.23739221-142.23739221-342.4862811 142.23739221-342.4862811 342.4862811-142.23739222z" p-id="1298"></path></svg>