<?xml version="1.0" standalone="no"?><!DOCTYPE svg PUBLIC "-//W3C//DTD SVG 1.1//EN" "http://www.w3.org/Graphics/SVG/1.1/DTD/svg11.dtd"><svg t="1562660941852" class="icon" viewBox="0 0 1024 1024" version="1.1" xmlns="http://www.w3.org/2000/svg" p-id="918" xmlns:xlink="http://www.w3.org/1999/xlink" width="128" height="128"><defs><style type="text/css"></style></defs><path d="M373.41866667 65.00124445C420.97777778 37.888 476.64924445 25.34968889 531.23982222 29.20675555c45.70453333 2.98097778 90.60124445 17.41937778 129.46773333 41.64266667 36.78435555 22.80106667 68.22115555 54.19235555 91.0336 90.97671111 25.45208889 40.80071111 40.04977778 88.29155555 41.8816 136.33991112 2.29831111 52.05333333-10.27413333 104.67555555-36.02204444 149.98186666-19.80871111 35.13457778-47.25191111 65.9456-79.88337778 89.64551111-38.32035555 28.03484445-83.87697778 46.12551111-131.02648888 51.80302223-14.1312 1.87733333-28.39893333 2.18453333-42.63253334 2.33244444-49.88017778 0.91022222-99.54417778 11.88977778-145.18044444 32.01706666-76.17422222 33.33688889-140.68622222 92.37617778-180.86115556 165.15982223-31.04995555 55.84213333-47.65013333 119.67146667-47.5136 183.56906667-0.07964445 5.91644445-2.11626667 11.91253333-6.36017778 16.13368888-5.96195555 6.26915555-15.78097778 8.44231111-23.81368888 5.21102222-8.192-3.02648889-14.05155555-11.33226667-14.1312-20.0704-0.04551111-50.64248889 8.85191111-101.34186667 26.624-148.7872 30.70862222-82.92124445 88.18915555-155.61386667 161.66684444-204.77724444 35.93102222-24.48497778 75.84426667-42.86008889 117.43004444-55.44391111-39.71982222-18.62542222-74.91128889-46.75128889-101.95626666-81.27146667-28.50133333-36.22684445-47.93457778-79.5648-55.73973334-125.00764444-9.77351111-55.89902222-2.17315555-114.75626667 21.77706667-166.22933334 24.53048889-53.3504 66.27555555-98.57706667 117.41866667-127.4311111m111.87768888 9.8759111c-38.912 4.34631111-76.65208889 18.60266667-108.71466666 41.08515556-33.9968 23.68853333-61.70168889 56.38826667-79.24622222 93.92355556-15.4624 32.74524445-23.15377778 69.10862222-22.30044445 105.28995555 0.73955555 51.12035555 18.97813333 101.72871111 50.72213333 141.77848889 28.16 35.86275555 66.84444445 63.40835555 110.08 77.98328889 45.80693333 15.65582222 96.44942222 16.66844445 142.88213334 2.99235555 43.32657778-12.61795555 82.7392-38.0928 112.25315556-72.192 30.54933333-35.03217778 50.44906667-79.23484445 56.18346666-125.3831111 6.18951111-48.21902222-2.85582222-98.29262222-25.86168889-141.15271112-20.79857778-39.12817778-52.81564445-72.18062222-91.21564444-94.27626666-43.37208889-25.24728889-94.95893333-35.72622222-144.78222223-30.04871112z m264.94293334 556.20266667c6.78115555-1.9456 14.32462222-0.35271111 19.88835556 3.92533333 50.82453333 38.57066667 93.0816 88.55324445 121.78773333 145.59004445 30.5152 59.91537778 45.86382222 127.31733333 45.29493333 194.50311111-0.31857778 11.92391111-11.60533333 21.97048889-23.48373333 20.98062222-9.65973333-0.52337778-18.44337778-8.05546667-20.25244445-17.57866666-1.1264-6.46257778-0.27306667-13.03893333-0.8192-19.54702222-1.90008889-51.55271111-14.30186667-102.71857778-36.52266666-149.28782223-25.71377778-54.10133333-64.60302222-101.80835555-112.16213334-138.19448889-5.12-3.75466667-9.09084445-9.37528889-9.77351111-15.80373333-1.67253333-10.6496 5.60924445-21.83395555 16.04266667-24.58737778z" fill="#C0C4CC" p-id="919"></path></svg>