<?xml version="1.0" standalone="no"?><!DOCTYPE svg PUBLIC "-//W3C//DTD SVG 1.1//EN" "http://www.w3.org/Graphics/SVG/1.1/DTD/svg11.dtd"><svg t="1562048854487" class="icon" viewBox="0 0 1024 1024" version="1.1" xmlns="http://www.w3.org/2000/svg" p-id="5162" xmlns:xlink="http://www.w3.org/1999/xlink" width="128" height="128"><defs><style type="text/css"></style></defs><path d="M320 320m64 0l256 0q64 0 64 64l0 256q0 64-64 64l-256 0q-64 0-64-64l0-256q0-64 64-64Z" p-id="5163"></path><path d="M512 960A448 448 0 1 0 512 64a448 448 0 0 0 0 896z m0 64A512 512 0 1 1 512 0a512 512 0 0 1 0 1024z" p-id="5164"></path></svg>